<?xml version="1.0" encoding="utf-8"?>
<!-- Generator: Adobe Illustrator 19.0.0, SVG Export Plug-In . SVG Version: 6.00 Build 0)  -->
<svg version="1.1" id="Layer_1" xmlns="http://www.w3.org/2000/svg" xmlns:xlink="http://www.w3.org/1999/xlink" x="0px" y="0px"
	 viewBox="-416 206 126 149" style="enable-background:new -416 206 126 149;" xml:space="preserve">
<style type="text/css">
	.st0{clip-path:url(#SVGID_2_);}
	.st1{fill:#FFFFFF;}
</style>
<g>
	<defs>
		<rect id="SVGID_1_" x="-416" y="206" width="126" height="149"/>
	</defs>
	<clipPath id="SVGID_2_">
		<use xlink:href="#SVGID_1_"  style="overflow:visible;"/>
	</clipPath>
	<g class="st0">
		<path class="st1" d="M-290,275.3c-0.3,0.9-0.3,1.5-0.6,2.2c0,0.9,0,1.5-0.3,2.5c0,0.6-0.3,1.2-0.3,2.2l-0.3,0.3v0.6l-0.3,1.2
			l-0.3,0.9l-0.3,0.6c0,0,0,0.3-0.3,0.6c-0.3,0.3-0.3,1.2-0.3,1.8l-0.3,0.6l-0.3,0.6l-0.6,0.9l-0.3,0.9c-0.9,0.3-0.9,0.6-0.9,0.6
			v0.6c-0.6,0.6-0.9,1.5-1.5,2.2c-0.6,0.9-0.9,1.5-1.5,2.2c-0.3,0.3-0.3,0.3-0.6,0.6l-0.3,0.3l-0.9,1.2c-0.3,0.3-0.6,0.3-1.2,0.9
			l-0.9,0.9c-1.2,1.2-2.5,2.5-4,3.4c-0.6,0.6-1.2,1.2-2.2,2.2l-0.3,0.3l-0.6,0.3l-1.2,0.6l-0.9,0.9c-0.6,0-1.2,0.3-1.2,0.6
			c-0.6,0.3-1.5,0.6-2.2,1.2c-0.9,0.3-1.5,0.3-2.5,1.2c-0.6,0.3-1.2,0.3-1.9,0.6c0,0.3,0,0.3,0,0.6c0.9-0.3,1.5,1.5,2.5,1.2
			c0,1.2,0,2.2,0,2.8c0,0.3,0.3,0.9,0.6,1.2c0.3,2.8,1.2,5.2,2.2,7.1c-0.3,0-0.3,0.3-0.3,0.6c0.3,0,0.3,0,0.3,0c0,0.6,0,0.9,0,1.2
			c0,0.3,0.3,0.3,0.3,0.3c0,0.6,0.3,1.2,0.3,2.2c0,0.3-0.3,0.9-0.3,1.2h0.3c0,0.3-0.6,0.9-0.3,1.2h0.3c0.3,2.2,0.3,3.7,0,6.2
			c0,0-0.3,0.6-0.6,0.9c0,0.3-0.3,0.3-0.3,0.6V339c0,0.3,0,0.3,0,0.6c-0.3,0-0.3,0-0.3,0V339c0,0.3,0,0.6,0,0.6
			c-0.3-0.3,0-0.6,0-0.9c-0.6,0.9-1.2,0.3-1.2-0.6v0.6c-0.6-0.3,0-0.9,0-1.2c-0.3,0,0,1.2-0.6,1.2c0-0.3,0-0.6,0-0.9
			c-0.3-0.3,0,0.3-0.3,0.3c0-0.3,0-0.3,0-0.3c-0.3,0.3-0.9,0-0.9,0.3c-0.9,0.6-1.2,1.2-2.2,0c0,0,0-0.6,0-0.9
			c-0.3,0-0.3,0.3-0.3,0.6c-0.3-0.3-0.3-0.6-0.6-1.2h-0.3c-2.5,0.3-3.4,1.2-3.7,2.2c0,0-1.5,0-2.5,0c0.3,0.9-3.1,1.2-2.8,2.2
			c-1.5,0-3.4-0.3-4.9-0.3c-0.9,0-2.2,0.3-3.1,0.3c-2.5,0.3-4.9,0.6-7.4,0.6c-2.2,0.3-4.6,0.3-7.1,0.3c-0.3,0-0.6-0.3-1.2-0.3v0.3
			c-0.3,0-0.3,0-0.3,0c-1.2,0-1.5-0.3-2.8-0.3c0,0.3,0,0.3,0,0.3c-1.2,0-2.8,0-4.6,0c-1.2,0-1.5-0.3-2.8-0.3
			c-0.9,0.3-1.9-0.3-2.8-0.3c-0.3,0.3-0.3,0.3-0.3,0.3c-2.2-0.3-3.7-0.3-6.2-0.3c-0.9,0-1.9-0.3-2.8-0.3h-3.1
			c-0.3,0-1.2-0.6-2.2-1.2c-0.3,0-0.3-0.3-0.6-0.3h0.6c0,0-0.3,0-0.6-0.3c-0.3,0-0.3,0-0.3,0h1.2c-0.3,0-0.9,0-1.2,0
			c0-0.3,0-0.3,0-0.3c0.6,0,1.5,0.3,2.2,0.3c-2.2-0.6-1.2-1.2,1.2-1.2c-0.3,0-0.9,0-0.9,0c0-0.6,1.5,0,1.9,0c0.3-0.3-1.9,0-2.2-0.6
			c0.3,0,1.5,0,2.2,0c0.3-0.3-1.9,0-1.5-0.3c0.6,0,1.2,0,1.5,0c-0.9-0.3,0-0.6-0.3-0.9c-1.2-0.6-2.2-1.2,0-1.5
			c0-0.3,0.3-0.3,0.3-0.3c-0.3-0.3-1.2-0.9-2.2-1.2c-0.3,0,0-0.6,0-0.9c-1.2,0-1.2-1.2-2.8-1.2c0.3-0.6,0.6-1.5,0.3-2.2
			c0-0.3-0.3-0.3-0.3-1.2c-0.3-0.9-0.3-2.2-0.9-2.8c-0.3-0.9-0.3-1.8-0.6-2.8v-0.3h-0.3v-0.3c0-0.3,0.3-0.6,0-0.9
			c0.3,0.6,0.3,0,0.3-0.6c0-0.3,0.3-0.3,0.3-0.9h-0.3c0-0.3,0.3-0.6,0.3-0.9h-0.3c0-0.6-0.3-1.5,0-2.2v-0.3V315
			c-0.6-0.3-0.9-0.3-1.5-0.6c-2.2-0.9-4.6-1.8-6.2-2.8c-0.9-0.9-0.9-0.9-0.3-0.9c-4.6-2.2-8.3-5.2-11.7-8.6
			c-3.1-3.7-5.9-7.7-7.4-12.3c-0.9-2.5-2.2-4.9-2.2-7.4c-0.6-2.5-0.9-4.9-0.9-7.4c-0.3,0-0.3-0.3-0.3-0.3c-0.3-3.1-0.3-5.8,0-8.6
			c0-2.8,0.6-5.2,1.2-8.3c0.3-2.2-0.3-0.6-0.3-1.2l0.3-2.2l0.3-2.2v-1.2l0.3-0.9l0.6-2.2l0.3-2.2l0.3-0.9l0.3-1.2l0.9-1.8l0.9-1.8
			l0.3-0.9l0.6-0.9l0.9-2.2l1.2-1.8c0.3-0.3,0.3-0.6,0.3-0.9l0.6-1.2c1.2-2.5,3.1-4.9,4.9-7.1c2.2-2.5,4.6-4.6,6.8-6.5
			c2.5-1.8,4.9-3.4,7.4-4.9c2.5-1.5,5.3-2.8,8-4c2.8-0.9,5.6-2.2,8.6-2.5c3.1-0.6,8.3-1.2,13.9-0.3c0.6,0,1.2,0.3,2.2,0.6
			c0.3,0,0.3,0,0.9,0c0.3,0.3,0.6,0.3,0.9,0.3c-1.5-0.3-3.1-0.3-4.6-0.3c1.9,0.3,3.7,0.3,5.3,0.9c0.3,0.3,0.9,0.3,1.2,0.6
			c-2.2-0.6-4-1.2-5.9-1.2c0,0,0.3,0,0.6,0.3c0.3,0,1.2,0,1.9,0.3c0.6,0,1.5,0,2.2,0.3c0.6,0,1.2,0.3,1.5,0.3c0,0,0,0,0,0.3
			c-2.2-0.6-4.6-1.2-6.8-1.5c-2.5,0-4.6,0-6.5,0c2.8,0,4.6,0.3,5.3,0.3c0.9,0.3,0.3,0.3-0.3,0.3c-1.9,0.3-6.2,0.3-11.7,1.8
			c0.3,0,0.9-0.3,1.5-0.3c0.6-0.3,1.2-0.3,2.2-0.3c0.9-0.3,1.9-0.3,1.9-0.3s-1.5-0.3-2.5-0.3c-0.6,0.3-1.2,0.3-1.5,0.3
			c-0.6,0.3-1.2,0.3-1.9,0.3c-2.5,0.6-5.3,1.2-6.2,1.8c-0.3,0.3,2.5-0.3,5.3-1.5c2.8-0.3,6.2-0.9,6.8-0.9c-3.7,0.3-7.4,1.5-10.8,2.5
			c-0.6,0.3-0.3,0.3,0.3,0.3c0.6-0.3,2.2-0.6,3.1-0.9c2.8-0.9,5.9-0.9,5.3-0.9c-1.5,0.3-3.1,0.6-4.3,0.9c-1.2,0.3-2.8,0.6-4.3,1.5
			c2.8-0.6,2.8-0.6,2.8-0.3c0,0,0,0.3,1.5,0c1.9-0.6,4.9-0.6,5.6-0.6c0,0.6,0,0.6-0.6,0.9c-0.9,0.3-2.5,0.6-4.9,1.5
			c-1.2,0.3-2.8,0.9-5.3,2.2c-1.9,0.3-4.3,1.8-6.5,2.8c1.5-0.9,3.7-1.5,5.9-2.5c-2.2,1.2-4.3,2.5-6.5,3.7c-2.2,1.5-4,3.1-5.9,4.6
			c-2.2,1.8-4,4-6.2,6.5c-1.9,2.5-3.4,5.2-4.9,8.6c-3.1,6.2-4.9,12.9-5.9,19.4c-0.3,0.6-0.3,1.2-0.3,2.2c-0.3,2.8-0.9,7.1-0.3,11.7
			c0.3,4.6,1.2,9.9,3.7,15.1c2.5,5.2,6.5,10.2,11.7,14.2c2.8,1.8,5.6,3.4,9,4.6c3.1,1.2,6.8,2.2,9.9,3.1c3.4,0.6,7.1,1.2,10.5,1.5
			c3.4,0.3,6.5,0.3,9.9,0.3c3.7,0,6.8-0.3,9.6-0.6c2.8-0.3,6.2-0.9,8.6-1.5c5.6-1.2,10.2-2.8,13.6-4.6c0.9-0.3,1.9-0.9,2.5-1.2
			c0.9-0.3,1.5-0.9,2.2-1.2c1.2-0.3,2.2-1.2,2.8-1.5c8.6-5.2,14.8-12.9,16.7-21.9c0.9-4.6,1.2-9.2,0.9-14.2v-0.9c0-0.3,0-0.6,0-0.9
			l-0.3-1.5l-0.3-2.2l-0.3-1.8c-0.3-2.2-1.2-4.3-2.2-6.5c-1.5-4.6-4.3-8.6-6.8-12.6c-1.5-2.2-3.1-4-4.6-6.2
			c-0.3-0.9-1.2-1.8-2.5-2.8c-0.3-0.9-1.5-1.5-2.5-2.5c-1.9-2.2-3.4-3.7-5.6-4.6c-1.9-1.5-3.7-3.1-5.9-4c-4-2.5-8.6-4.6-13.3-4.9
			c0.6,0,0.6,0,0.3,0c-0.6-0.3-1.2-0.3-2.2-0.6c-0.3,0-0.6,0-0.9,0s-0.6-0.3-0.9-0.3c-0.6,0-0.6,0,0.3,0c0-0.3,0.3-0.3,0.6-0.3
			c0.6,0.3,0.9,0,1.5,0.3c0.9,0,2.2,0.3,3.7,0.6c2.8,0.6,5.9,2.2,8.3,2.8c3.1,1.2,5.6,2.8,7.4,4c2.2,1.2,3.7,2.2,4.9,2.8
			c2.5,1.5,3.7,2.2,4.6,2.5c0.3,0,0.6,0.3,1.2,1.2c0.3,0.3,0.9,0.3,1.2,1.2c0.3,0.3,0.9,0.6,1.2,1.2c2.2,2.2,4.3,4.6,5.6,6.8
			c-0.9-1.8,2.2,1.2,4.6,4.6c2.5,3.7,4.6,7.7,4.9,7.1c0.6,2.2,1.5,4,2.2,6.2c0.6,2.5,0.9,4.6,1.2,7.1
			C-289.7,266-289.7,271-290,275.3z M-392.8,271.6c0.3-0.6,0.3-1.2,0.3-2.2c0-0.3-0.3-0.3-0.3-0.3c0.3-2.8,1.5-5.5,3.1-8.6
			c0.9-1.2,2.2-2.2,3.7-3.1c0.9-0.9,2.5-1.8,3.7-2.5c0.6-0.3,2.2-0.3,3.7-0.3c0.3,0,0.3,0,0.9,0c-0.3,0.3-0.6,0.3-0.9,0.3
			c0.3,0,0.3,0,0.9,0c0.3,0,0.3,0,0.3,0c-0.3,0-0.6,0.3-1.2,0.3c0.3,0,1.2-0.3,1.2-0.3c-0.9,0.3-2.2,0.6-2.8,0.9
			c1.5-0.3,1.5,0,1.2,0.3c-0.3,0.3-0.9,0.3-2.2,1.2c0.3,0,0.3-0.3,0.6-0.3c0.3,0,0.6,0,0.6,0c0,0.3-0.6,0.3-0.9,0.6
			c-0.6,0-1.2,0.3-1.5,0.3c0.3,0.3,0.6,0,1.2-0.3c0.6-0.3,1.2-0.3,1.5-0.3c-0.3,0.3-1.5,0.9-2.2,1.2c0,0.3,0.3,0,0.9-0.3
			c0.3-0.3,0.9-0.3,0.9-0.3c-0.9,0.3-1.5,0.3-2.2,0.9c1.2-0.3,0.3,0.3,1.2,0.3c0.6,0.3,1.2,0.3,1.5,0.3c0.3,0.3,0,0.6-0.9,1.2
			c0,0,0,0,0,0.3c1.9,0,2.8-0.3,3.4-0.6c0-0.3,0.3,0,0.9,0.3c0.3,0,0.3,0.3,0.6,0.3c0.3,0.3,0.6,0.3,0.6,0.6c0-0.3,0.3-0.3,0.6-0.3
			c0.3,0,0.9,0,1.2,0.3c1.2,0.3,2.2,0.9,2.2,0.3c0.6,0.6,1.2,1.5,1.9,2.8c0.3,0.9,0.6,1.8,1.2,3.1c0.3,1.2,0.3,2.5,0.3,4
			c0,1.8-0.3,3.4-1.5,4.9c-0.3,1.5-1.9,2.8-2.8,4c-0.3,0.3-0.6,0.6-0.6,0.6c-0.3,0.3-0.6,0.6-0.9,0.9c-0.6,0.6-1.2,1.2-1.9,1.5
			c-1.2,0.6-1.5,0.9-2.8,1.2c-0.9,0.6-1.9,1.2-2.8,1.2c-0.6,0-1.5,0-2.2-0.3l-0.3,0.3c-0.3,0-0.6-0.3-0.9-0.3
			c-2.2-0.3-3.1-1.5-4-2.2c-0.3-0.3-0.3,0-0.3,0c-0.9-0.9-1.9-1.8-2.5-2.8c-0.6-1.2-1.2-2.2-1.5-3.7c-0.3-1.2-0.3-2.5-0.3-3.7h-0.3
			C-392.8,272.5-392.8,272.2-392.8,271.6z M-384.2,272.5c0,0.6,0,1.5,0.3,2.8c0.3,0.9,0.9,1.8,1.2,2.5c0.3,0.3,0.6,0.3,0.9,0.3
			c0.3,0,0.6,0,0.6,0c0.6,0.3,1.2,0,2.2-0.3c0.3-0.3,0.3-0.6,0.9-0.9c0.3,0,0.3-0.3,0.3-0.3c0.3-0.3,0.6-0.6,0.6-0.6
			c1.5-1.5,2.2-2.5,2.5-3.1c0.3-0.6,0.6-1.2,1.2-2.2c0-0.3,0-0.9,0-1.2c0-1.2-0.6-2.2-1.5-3.7c-0.6-0.3-1.2-0.9-1.5-1.5
			c-1.2-0.6-1.5-0.9-2.2-1.5c-0.6-0.3-1.5-0.3-2.2-0.9c-0.6,0.6-0.9,1.5-1.2,2.2c-0.3,0.6-1.2,1.5-1.2,2.8c-0.6,1.2-0.9,2.2-0.9,3.1
			c0,0.3,0,0.3,0,0.3C-384.2,271-384.2,271.6-384.2,272.5z M-381.4,261.7c0,0.3-0.3,0.3-0.3,0.6C-381.7,262-381.4,262-381.4,261.7
			c0.3,0.3,0.3,0.3,0.6,0.3C-381.1,262-381.1,261.7-381.4,261.7z M-317.5,346.4c-0.3,0.3-2.2,0-3.1,0c-2.8,0.6-3.1,1.5-3.7,2.5
			c0,0.3-1.5,0.3-2.5,0.3c0.6,0.9-2.8,1.5-2.8,2.5c-1.2,0-3.1-0.3-4.6,0c-1.2,0-2.2,0.3-3.1,0.3c-4.9,0.6-9.6,1.2-14.2,2.2
			c-0.3,0-0.9,0-1.2,0c0,0,0,0.3-0.3,0.3c0,0,0,0-0.3,0c-0.9,0-1.9,0-2.5,0c0,0,0,0,0,0.3c-1.5,0-3.1,0-4.6,0c-0.9,0-1.5,0-2.5-0.3
			v0.3c-0.9,0.3-2.2-0.3-2.8-0.3c-0.3,0.3-0.3,0.3-0.3,0.6c-3.7,0-7.7-0.3-11.7-0.3c-0.3,0-1.2-0.6-2.2-1.2c-0.3,0-0.3-0.3-0.3-0.3
			h0.3c-0.3,0-0.3,0-0.9,0c0-0.3,0-0.3,0-0.3h0.9c-0.3,0-0.3,0-0.9,0c0.6-0.3,1.5,0,2.2,0c-1.9-0.6-0.9-1.2,1.2-1.2
			c-0.3,0-0.9,0-0.9,0c0-0.6,1.5,0,2.2,0c0-0.3-2.2,0-2.2-0.6c0.6,0,1.2,0,1.9,0c0.6-0.3-1.5,0-1.5-0.3c0.6,0,1.2,0,2.2,0
			c-1.2-0.3-0.3-0.6-1.2-0.9c-0.3-0.6-1.9-1.2,0.3-1.5c0.3-0.3,1.2-0.3,2.2-0.3c-0.3-0.3-0.6-0.3-1.2-0.3c0.9,0,1.9-0.3,2.8-0.6
			c2.2-0.6,5.3-0.6,7.4-0.6h0.6c4.3,0.3,21.6,0,24.1-0.6c7.7,0,15.1-0.3,22.5,0C-318.7,345.8-316.9,346.1-317.5,346.4z
			 M-366.6,333.8c0.3,0,0.6,0,0.9,0v-0.3c0-0.3-0.3-0.6-0.6-1.2c-0.3-0.3-0.9-1.2-1.2-2.2c-0.3-0.6-1.2-1.2-1.2-2.2
			c0-0.3,0-0.3,0-0.3s0,0.3-0.3,0c0-0.3,0-0.6,0-0.6c0-0.3,0,0-0.3,0c0-0.6-0.3-0.9-0.3-1.5c0-0.3,0-0.6,0.3-0.6h-0.3
			c-0.3-0.3,0.3-0.6,0-0.9h-0.3c-0.3-0.6-0.3-1.2-0.3-1.8c-0.3-0.3-0.3-0.3-0.3-0.6s0-0.6,0-0.9c0-0.3,0.3-0.6,0.3-1.2
			c0.3,0,0.3-0.3,0.6-0.3v0.3c0-0.3,0-0.3,0-0.3v-0.3l0.3,0.3v-0.3c0,0.3,0,0.3,0,0.3c0.3-0.3,0.9-0.3,1.2,0c0,0-0.3-0.3,0-0.3
			c0.3,0,0,0.6,0,0.6c0.3,0,0-0.6,0.3-0.6l0.3,0.3c0.3,0,0-0.3,0-0.3c0.3,0,0.3,0.3,0.3,0.3c0.3-0.3,0.6-0.3,0.9-0.3
			c0,0-0.3,0-0.6,0l-1.2-0.3h-1.5c-1.9-0.3-4-0.9-6.2-1.2c-0.3,0-0.3,0-0.9,0c0,0.9,0,3.4,0,5.5c0,0.9,0,2.2,0,3.1
			c0,0.3,0.3,1.5,0.3,1.8c-0.3,2.2-0.3,4.6-0.6,7.1c0.6-0.3,1.5-0.3,2.2-0.6c2.2-0.3,5.3-0.3,7.7-0.3H-366.6z M-376.5,335.3
			c-0.3,0-0.6,0-0.6-0.3c0,0.3,0,0.3,0,0.3S-376.8,335.3-376.5,335.3z M-364.7,319.3h0.3H-364.7z M-332.3,335.3
			c-0.6-0.3-1.2-0.3-1.9-0.3c0,0,0-0.6,0-1.2c-1.2,0.3-1.5-0.9-2.5-0.9c0-0.6,0-1.2,0-1.8c0-0.3-0.3-0.6-0.6-1.2
			c-0.6-1.5-1.2-3.4-1.5-4.9c0-0.3,0-0.3,0-0.6c0,0,0,0-0.3,0c0-0.3,0.3-0.3,0.3-0.9c-0.3,0-0.3,0-0.3,0c0-0.6-0.3-1.2-0.3-1.8
			c0.3-0.3,0.6-0.6,0.6-0.6v-0.3c0-0.3,0.3-0.6,0.3-1.2h-0.3c0-0.3,0-1.2,0-1.5h-0.6c-1.2,0.3-2.5,0.3-3.7,0.6c0,0.3,0.3,0.6,0,0.6
			v0.3c0,0.6,0.3,2.2,0.3,3.1c0.3,1.5,0.6,2.8,0.6,3.1c0.3,2.2,0.9,3.7,0.6,5.5c0,0-0.3,0.6-0.6,0.3c-0.3,0,0-0.3,0-0.6
			c-0.6-0.6-1.9-0.6-2.5-0.6c-0.3,0-0.3-0.6-0.3-0.6c-0.9,0.3-1.5-0.3-2.8-0.3c0-0.3,0.3-1.2,0-1.2c0-0.3-0.3-0.6-0.6-0.6
			c-0.9-1.2-1.5-2.5-2.2-3.7v-0.3h-0.6c0-0.3,0-0.6,0-0.9c0,0,0,0-0.3,0c0-0.3,0-0.6-0.3-1.2c0.3,0,0.3-0.3,0.3-0.3h-0.3
			c-0.3-0.3,0.3-0.6,0-1.2c0,0,0,0-0.3,0c0,0,0,0,0-0.3c-2.8,0.3-5.3,0.3-7.7,0.3l-2.5-0.3c-0.3,0-1.2,0-1.5,0c0.3,0,0.3,0,0.3,0.3
			c0.6,0.6,1.2,1.5,1.2,2.8h0.3c0,0.9,0.3,2.8,0.6,4.6c0.3,1.2,0.3,2.2,0.6,2.8c0,0.3,0.3,1.2,0.3,1.5c0.3,1.2,0.3,2.5,0.6,3.4
			c1.9,0.3,4,0.3,5.9,0.3c2.8,0,5.3,0.3,7.7,0.3c2.2,0,3.7,0,4.3,0C-338.8,335.3-335.4,335.3-332.3,335.3z M-350.5,288.8
			C-350.8,289.1-350.5,289.1-350.5,288.8c0.3,0,0.3,0,0.6,0.3c0,0,0,0,0,0.3c0.3,0,0.3,0,0.3,0c0.3-0.3,0.9-0.3,1.2-0.3
			c0.6,0.3,1.2,0.6,1.5,0.3c0.3,0,0.3,0.3,0.3,0.3s0.3,0.3,0.3,0.6c0,0.3,0,0.6,0,0.6c0,0.3,0.3,0.6,0.3,0.9c0,0.3,0.3,1.2,0.6,1.8
			c0,0.3-0.3,0.6-0.3,0.6c0,0.3,0,0.6,0,0.6c0,0.6-0.3,0.9-0.3,1.5c-0.3,0-0.3,0.3-0.3,0.6c-0.3,0-0.3,0.3-0.6,0.3l-0.3,0.3
			c-0.3,0.3-0.3,0.6-0.3,0.6c-1.2,0.3-2.2,1.2-3.1,1.5h-0.6h-0.3c-0.3,0-0.6,0-0.9,0c-0.6-0.3-1.5-0.3-2.2-0.6
			c-0.3-0.3-0.3-0.3-0.9-0.6c-0.3,0-0.3,0-0.3,0c-0.3,0-0.3-0.3-0.3-0.3c-0.3,0-0.3-0.3-0.3-0.6l-0.3-0.3c0-0.3-0.3-0.3-0.3-0.3
			l-0.3-0.3c0,0,0,0-0.3,0c0-0.3-0.3-0.3-0.3-0.9c-0.3-0.3-0.3-0.3-0.6-0.6V295c-0.3-0.3-0.3-0.6-0.3-0.9c0-0.3,0-0.6,0-0.9
			c0,0,0-0.3,0-0.6c-0.3-0.6,0.3-1.2,0-1.8c0-0.3-0.3,0-0.3,0c0-2.5,0.6-4.6,1.2-6.8c0-0.3,0.3-0.3,1.2-1.2h0.3v0.3
			c0,0,0-0.3,0.3-0.3v0.3c0,0,0-0.3,0.3-0.3c0,0.3-0.3,0.6-0.3,0.9c0.9-0.9,1.2,0,0.9,0.9c0-0.3,0.3-0.6,0.3-0.6
			c0.3,0.3-0.3,1.2-0.3,1.2c0.3,0.3,0.3-0.6,0.9-1.2c-0.3,0.3,0,1.2-0.3,1.2c0.3,0.3,0.3-0.9,0.3-0.9c-0.3,0.3-0.3,0.6-0.3,0.9
			c0.3-0.3,0.6,0,0.9,0c0.9-0.3,1.5-0.6,2.2,0.3c0,0.3,0,0.6-0.3,1.2c0.3,0,0.6,0,0.6-0.3c0.3,0.6,0.6,0.9,0.6,1.5
			C-350.8,287.9-350.5,288.5-350.5,288.8z M-341,263.9c0.6-2.8,1.5-5.8,3.1-8.6c0,0-0.3-0.3-0.6-0.3c-0.3-0.3-0.3-0.6-0.3-0.6
			c0.3,0,0.6,0,1.2,0.3c0.3-0.3,0.3-0.3,0.3-0.3c0.6-0.9,1.9-1.8,3.1-2.8c0.3-0.3,0.6-0.3,1.2-0.6c-0.3,0.3-0.3,0.6-0.9,0.9
			c0.3-0.3,0.6-0.6,0.9-0.9c0.3,0,0.3,0,0.3,0c-0.3,0.3-0.6,0.6-0.9,1.2c0-0.3,0.3-0.3,0.3-0.6c0.3-0.3,0.6-0.6,0.9-0.6
			c-0.9,0.6-1.9,1.8-2.5,2.5c0.3-0.3,0.9-0.6,0.9-0.6c0.3-0.3,0.3,0,0.3,0c0,0.6-0.6,1.5-1.2,2.8c0.3-0.3,0.6-0.6,0.6-0.6
			c0,0.3,0,0.3-0.3,0.9c0-0.3,0.3-0.3,0.3-0.3c0.3-0.3,0.3-0.6,0.6-0.6c-0.3,0.3-0.6,0.6-0.6,0.9h0.3c0,0,0-0.3,0,0
			c1.2,0,2.2,0,2.8,0c0.9-0.3,1.2-0.6,1.5-0.9c0.3,0,0.3,0,1.5,0.3c0.3,0.3,1.2,0.6,1.9,0.9c-0.3-0.3,0.9-0.3,2.2-0.3
			c1.2,0,2.5,0.3,2.5-0.3c1.9,1.2,4.3,2.8,6.2,4.3c1.2,0.9,2.5,1.8,3.7,3.1c0.6,0.9,1.2,1.8,2.2,2.8l0.3,0.6c0,0.3,0.3,0.6,0.3,0.9
			c0,0.3,0.3,0.6,0.3,1.2v0.3v0.6v0.3v0.9c0,0.3,0,1.2,0,1.5c-0.3,0.3-0.3,1.2-0.6,1.8c0,0.3-0.3,0.9-0.6,1.5
			c-0.9,1.8-2.2,3.4-3.4,4.6c-1.2,1.5-2.8,2.8-4.3,4c-0.3,0-0.6,0.3-1.2,0.3c-0.3,0-0.3,0.3-0.9,0.3c0,0.3,0,0.3-0.3,0.3
			c0,0.3-0.3,0.3-0.6,0.6c-1.5,0.6-3.4,0.6-4.6,0.9c-0.3,0-0.3,0-0.3,0c-1.5,0.3-3.7,0-5.3-0.6c-1.2-0.6-2.8-1.5-4.3-2.8
			c-1.2-1.2-1.9-2.5-2.8-3.7h-0.3c-0.3-0.9-0.6-1.8-0.9-2.5c-0.3-0.9-0.3-1.5-0.9-2.5c0-0.6-0.3,0-0.3,0
			C-341,271-341.3,267.6-341,263.9z M-336,257.4c0.3,0,0.6-0.6,1.2-1.2C-335.4,256.8-335.7,257.1-336,257.4z M-334.5,256.5
			c0,0.3-0.3,0.6-0.3,0.9c0.3-0.3,0.3-0.3,0.9-0.3c0,0,0.3,0.3,0.6,0c0,0,0.3,0,0.3-0.3C-333.2,256.8-333.9,256.5-334.5,256.5z
			 M-334.8,256.5c0,0.3-0.3,0.6-0.3,0.9C-334.8,257.7-334.8,257.1-334.8,256.5C-334.5,256.5-334.5,256.5-334.8,256.5z M-331.7,257.4
			c0,0,0,0.3-0.3,0.6c0,0.6-0.6,1.5-0.9,2.8c0.3-0.3,0.6-1.2,0.9-1.2c-0.3,1.2-0.3,2.5-0.3,3.7c0,1.2-0.3,2.8,0,4.3
			c0,1.5,0.3,3.1,0.6,4.6c0.3,0.3,0.3,0.3,0.3,0.3c0,0.6,0.3,1.2,0.9,2.2c0.6,0.9,1.2,2.2,1.9,2.5c1.2,0.6,2.2,0.9,2.8,1.2
			c0.9,0,2.2-0.3,3.4-0.9c0.6-0.3,1.2-0.6,2.2-0.9c0.3-0.6,1.2-1.2,1.9-1.5c0.6-0.6,0.9-1.2,1.5-1.5c0.3-0.6,0.9-1.2,0.9-1.5
			c0.3-0.3,0.6-0.6,0.6-1.2c0.3-0.3,0.3-0.3,0.3-0.9c0-0.3,0-0.3,0-0.3c0-0.3,0-0.3,0-0.3c0-0.3,0-0.3,0-0.6c0-0.6-0.3-1.2-0.9-2.2
			c-0.3-0.3-0.9-1.5-1.9-2.2c-1.5-1.5-3.7-2.8-5.6-4c-2.2-1.2-4.6-2.2-7.1-3.1C-330.8,257.7-331.4,257.4-331.7,257.4z M-332.3,316.8
			c0.3-0.3,0.3-0.3,0.6-0.3C-331.7,316.5-331.7,316.5-332.3,316.8z M-321.8,335.9c-0.3-1.2-0.3-2.5-0.3-3.4v-0.3
			c0-0.9,0-3.7-0.3-6.5c0-1.2,0-2.8-0.3-3.7c0-1.2,0-2.2-0.3-2.2c0-2.2,0-4,0-6.2c-0.3,0.3-1.2,0.3-1.9,0.6
			c-1.5,0.6-3.1,1.2-4.6,1.5c-0.6,0.3-1.2,0.3-1.9,0.6c0.3,0.3,0.6,0.3,0.6,0.9c0.3,0.3,0.3,1.8,0.3,2.8c0,0.9-0.3,2.8-0.3,4.6
			c0,1.8,0,3.7,0.3,4c0,2.2,0,4.6,0,6.5C-327.4,335.3-324.6,335.9-321.8,335.9z"/>
	</g>
</g>
</svg>
