<?xml version="1.0" standalone="no"?>
<!DOCTYPE svg PUBLIC "-//W3C//DTD SVG 20010904//EN"
 "http://www.w3.org/TR/2001/REC-SVG-20010904/DTD/svg10.dtd">
<svg version="1.0" xmlns="http://www.w3.org/2000/svg"
 width="752.000000pt" height="752.000000pt" viewBox="0 0 752.000000 752.000000"
 preserveAspectRatio="xMidYMid meet">
<metadata>
Created by potrace 1.14, written by Peter Selinger 2001-2017
</metadata>
<g transform="translate(0.000000,752.000000) scale(0.100000,-0.100000)"
fill="#000000" stroke="none">
<path d="M3065 7510 c-27 -4 -72 -11 -100 -14 -184 -25 -486 -119 -685 -211
-69 -33 -132 -64 -140 -70 -8 -5 -31 -19 -50 -29 -19 -10 -133 -83 -253 -163
-198 -132 -230 -157 -360 -286 -79 -78 -165 -171 -192 -207 -27 -36 -52 -67
-55 -70 -18 -14 -137 -204 -171 -271 -21 -43 -52 -98 -68 -124 -16 -25 -39
-71 -52 -103 -12 -31 -30 -68 -39 -82 -10 -14 -31 -65 -48 -115 -48 -145 -74
-218 -88 -252 -7 -17 -18 -59 -24 -93 -6 -35 -23 -95 -37 -134 -14 -39 -28
-91 -30 -115 -2 -24 -13 -80 -23 -125 -24 -97 -24 -97 -6 -90 10 4 13 -3 11
-28 -4 -41 -17 -126 -32 -203 -2 -11 -6 -36 -9 -55 -3 -19 -8 -46 -10 -60 -3
-14 -8 -141 -10 -283 -4 -210 -2 -264 10 -290 8 -18 17 -72 20 -122 14 -198
53 -367 138 -595 85 -227 164 -371 311 -564 76 -100 136 -161 258 -263 108
-91 213 -163 309 -215 36 -19 87 -49 114 -66 27 -17 99 -52 160 -78 61 -25
129 -54 151 -64 22 -10 47 -21 56 -23 14 -5 17 -19 16 -80 -1 -47 3 -80 11
-90 7 -8 9 -18 5 -20 -5 -3 -7 -43 -5 -89 2 -46 4 -95 4 -111 0 -15 5 -27 11
-27 6 0 8 -2 5 -5 -4 -5 10 -62 57 -230 9 -33 19 -68 20 -77 2 -9 8 -26 14
-37 14 -25 14 -52 0 -88 -12 -33 -12 -38 1 -39 6 -1 14 -2 19 -3 6 0 25 -14
43 -31 18 -16 38 -30 44 -30 7 0 10 -8 7 -18 -3 -14 8 -24 46 -42 28 -13 51
-26 51 -29 -1 -15 -18 -30 -42 -36 -42 -11 -41 -31 3 -59 34 -23 38 -29 29
-47 -6 -11 -15 -17 -21 -14 -5 4 -9 0 -9 -7 0 -10 -2 -10 -8 -1 -6 10 -12 10
-28 -2 -10 -8 -14 -15 -7 -15 18 0 4 -30 -14 -30 -8 0 -23 -5 -34 -11 -16 -8
-18 -13 -8 -25 14 -17 13 -17 -29 -5 -21 6 -32 6 -32 0 0 -16 20 -31 85 -65
l60 -32 215 -7 c118 -4 253 -9 299 -11 51 -2 89 0 97 7 7 6 28 8 47 5 92 -15
436 -24 455 -12 5 3 31 3 58 0 63 -6 66 -6 224 0 267 9 658 42 740 61 45 11
134 13 190 5 112 -17 141 -18 146 -5 3 7 32 25 65 40 33 14 67 35 77 45 13 13
31 17 75 16 35 0 57 3 57 10 0 33 88 89 157 100 35 5 40 3 51 -20 12 -27 31
-35 33 -13 0 6 5 -3 10 -20 13 -43 47 -53 88 -24 38 27 71 28 71 1 0 -16 5
-19 25 -16 14 3 25 0 25 -5 0 -5 11 -14 25 -19 14 -5 25 -14 25 -20 0 -18 15
-11 27 13 46 86 47 91 47 212 1 101 -2 126 -17 149 -12 18 -15 31 -9 39 14 17
9 207 -5 215 -7 4 -14 34 -17 67 -3 33 -16 92 -30 130 -27 76 -52 168 -61 228
-4 21 -15 53 -25 70 -13 24 -17 51 -16 105 1 59 -2 72 -15 72 -8 0 -28 14 -44
30 -16 17 -37 30 -48 30 -28 0 -17 32 13 40 14 4 44 18 65 32 22 14 58 31 80
38 22 7 42 16 45 20 6 8 100 62 145 84 17 8 43 26 58 39 15 14 52 37 81 52 30
15 71 45 92 66 22 22 66 58 99 81 33 23 117 100 188 172 161 165 166 171 210
237 20 30 53 79 74 109 21 30 54 86 73 124 19 38 45 87 57 110 12 23 22 49 22
59 1 11 19 56 40 100 22 45 43 102 46 127 3 25 13 72 22 105 8 33 18 87 20
120 3 33 14 87 25 119 18 55 19 82 15 405 -3 190 -7 356 -10 367 -5 22 -13 65
-22 132 -3 20 -8 48 -11 62 -2 14 -7 39 -10 55 -22 127 -121 399 -161 442 -15
17 -74 105 -131 196 -124 198 -288 407 -321 407 -5 0 -31 28 -58 63 -26 34
-81 100 -123 147 -41 47 -90 103 -110 125 -72 83 -157 156 -205 179 -27 12
-97 52 -155 87 -58 36 -139 82 -180 103 -41 21 -118 66 -170 100 -133 86 -170
105 -380 186 -223 87 -256 98 -379 125 -41 9 -77 18 -81 20 -3 2 -45 7 -93 11
-59 4 -87 3 -87 -4 0 -17 16 -23 75 -27 30 -2 69 -11 87 -19 18 -8 51 -17 73
-21 158 -23 337 -95 631 -253 77 -41 195 -125 233 -166 14 -14 28 -26 33 -26
5 0 35 -17 66 -39 63 -43 415 -386 452 -441 22 -32 137 -178 150 -190 48 -44
254 -379 335 -545 105 -214 200 -500 229 -690 19 -125 27 -503 14 -640 -27
-276 -74 -449 -175 -649 -109 -218 -306 -452 -510 -609 -68 -52 -272 -186
-323 -212 -19 -10 -48 -28 -65 -40 -16 -12 -48 -29 -70 -37 -22 -9 -74 -32
-116 -51 -124 -58 -374 -150 -469 -172 -8 -2 -58 -16 -110 -30 -185 -51 -451
-100 -599 -111 -46 -3 -94 -8 -105 -10 -114 -22 -637 -22 -776 0 -14 3 -54 7
-90 10 -66 7 -258 33 -295 41 -11 3 -31 7 -45 9 -81 13 -122 23 -279 67 -327
93 -579 200 -778 332 -127 85 -147 102 -270 226 -234 235 -381 502 -468 851
-31 125 -36 160 -53 335 -9 104 -9 411 1 500 4 39 10 108 13 155 4 47 10 92
14 101 5 8 16 58 25 110 18 109 42 230 50 250 2 8 6 25 9 39 9 54 70 251 113
365 39 102 129 289 225 465 175 320 507 642 885 860 90 51 161 95 159 97 -1 2
-28 -8 -60 -22 -31 -14 -60 -25 -64 -25 -32 2 319 140 493 195 195 61 218 70
223 85 4 10 -22 12 -120 7 -68 -3 -130 -8 -138 -11 -26 -10 -110 -14 -110 -6
0 4 -16 10 -35 12 -19 2 -35 1 -35 -2 0 -3 -15 -7 -32 -8 -26 -2 -30 0 -20 10
6 6 30 12 51 13 21 0 37 3 34 8 -2 4 0 7 6 7 5 0 17 3 27 7 12 4 15 3 10 -5
-10 -17 0 -15 77 10 46 15 63 25 55 31 -9 5 -4 7 14 4 15 -2 29 0 30 5 2 5 20
10 41 12 21 2 40 6 44 10 3 3 16 6 27 7 20 0 20 1 -1 9 -31 13 -29 18 3 12 19
-3 25 -1 20 7 -4 6 -2 11 4 11 7 0 9 -9 6 -22 -3 -13 -3 -17 0 -10 3 6 10 10
15 7 5 -4 6 1 3 10 -5 11 -2 14 12 8 11 -4 15 -3 11 4 -4 7 20 13 71 18 42 4
84 8 93 10 8 2 60 6 115 10 54 4 101 8 103 11 2 2 -6 7 -19 12 -39 15 -1 20
75 11 78 -10 138 -22 238 -51 38 -10 74 -17 80 -15 12 4 -80 41 -126 51 -15 4
-26 10 -23 14 2 4 -4 8 -14 8 -10 0 -16 -4 -14 -8 3 -4 0 -8 -5 -8 -6 0 -11 4
-11 9 0 10 -73 36 -130 46 -52 10 -417 13 -475 5z m-296 -204 c-10 -9 -201
-64 -191 -54 5 5 45 20 88 33 74 22 113 30 103 21z m60 -10 c-2 -1 -19 -8 -36
-14 -37 -12 -45 -6 -10 8 22 9 54 13 46 6z m2425 -5368 c0 -84 4 -159 9 -166
10 -13 13 -38 22 -197 3 -55 8 -113 10 -130 5 -32 13 -168 19 -305 2 -47 7
-104 11 -128 l8 -44 -79 7 c-43 4 -87 9 -97 11 -11 2 -74 6 -140 10 -67 4
-124 8 -127 11 -4 4 -10 240 -12 493 0 63 2 169 4 235 5 125 -3 182 -28 202
-19 14 -18 15 91 47 80 24 158 51 265 92 19 7 37 13 40 14 3 0 5 -69 4 -152z
m-2487 -64 c70 -15 152 -28 181 -29 29 -2 67 -9 84 -16 27 -11 29 -14 12 -20
-10 -3 -23 -3 -29 0 -9 6 -66 8 -117 3 -20 -2 -36 -46 -33 -92 6 -77 18 -135
28 -142 7 -4 12 -20 13 -35 3 -56 14 -117 22 -122 5 -3 12 -18 15 -32 4 -15
22 -49 41 -77 19 -28 48 -75 65 -105 17 -30 38 -60 46 -67 8 -7 15 -23 15 -36
l0 -24 -147 -1 c-82 -1 -161 -2 -178 -4 -74 -6 -181 -26 -218 -41 -15 -5 -17
0 -13 42 3 27 8 87 11 134 4 47 10 103 14 126 5 23 3 51 -2 65 -6 14 -11 127
-12 262 l-2 237 38 0 c21 0 95 -12 166 -26z m1697 -36 c0 -21 4 -38 8 -38 14
0 -3 -74 -19 -87 -13 -10 -13 -18 -3 -50 7 -21 15 -42 17 -46 3 -5 7 -34 9
-66 4 -65 41 -186 85 -277 19 -41 29 -78 29 -108 0 -29 4 -46 12 -46 6 0 21
-9 33 -20 12 -11 36 -22 54 -23 20 -1 30 -6 26 -14 -7 -21 6 -43 26 -43 10 0
19 -4 19 -9 0 -5 -10 -8 -22 -6 -33 5 -350 17 -573 21 -104 1 -206 5 -225 8
-19 4 -123 8 -230 11 -217 6 -262 9 -278 19 -9 5 -20 48 -27 106 -13 105 -19
138 -27 154 -6 10 -12 33 -15 50 -3 17 -11 60 -18 96 -8 36 -17 93 -21 128 -3
34 -11 65 -15 68 -5 3 -7 9 -4 14 7 11 -15 71 -37 100 -20 25 -20 25 4 31 12
3 41 2 63 -2 22 -4 140 -7 263 -6 123 1 227 0 231 -3 6 -4 6 -64 1 -80 -4 -10
2 -55 8 -65 4 -5 7 -19 7 -30 1 -11 6 -19 13 -17 7 1 12 -5 12 -14 0 -30 65
-147 103 -186 32 -33 38 -46 35 -70 -3 -17 0 -31 6 -33 6 -1 31 -9 55 -16 24
-7 52 -12 62 -12 11 1 19 -5 19 -13 0 -8 3 -14 8 -15 4 0 23 -2 43 -4 49 -4
79 -21 79 -45 0 -22 22 -27 37 -7 13 17 7 123 -12 218 -9 44 -19 92 -21 107
-3 15 -9 43 -14 62 -20 76 -34 257 -20 265 4 2 32 7 63 10 30 4 68 10 84 15
53 16 68 9 67 -32z"/>
<path d="M4750 5246 c-14 -6 -29 -15 -35 -21 -5 -6 -36 -31 -68 -55 -32 -23
-69 -56 -83 -73 -21 -25 -29 -28 -47 -20 -12 6 -27 8 -34 6 -15 -6 -5 -33 12
-33 26 0 26 -19 1 -69 -37 -72 -63 -142 -101 -266 -33 -110 -34 -110 -30 -285
5 -202 31 -380 55 -365 9 6 50 -73 50 -97 0 -23 49 -148 64 -163 7 -7 39 -50
71 -94 67 -93 140 -153 260 -212 109 -53 183 -63 348 -45 135 15 164 23 222
66 27 21 64 41 82 45 36 7 187 137 266 228 98 113 168 233 203 347 19 64 23
238 6 272 -6 13 -16 42 -22 65 -11 46 -104 176 -166 234 -59 55 -206 164 -332
246 -88 58 -116 72 -130 64 -10 -5 -33 -7 -52 -5 -79 9 -146 10 -162 2 -12 -6
-34 -1 -71 17 -52 24 -127 34 -127 16 0 -23 -84 -37 -193 -32 -18 1 -40 42
-27 51 11 8 40 72 40 88 0 8 -6 12 -15 8 -12 -4 -13 -2 -3 14 7 10 16 16 20
14 4 -3 8 1 8 8 0 8 9 20 20 28 36 26 17 36 -30 16z m-6 -282 c12 -5 14 -10 6
-18 -13 -16 -70 -8 -70 10 0 15 36 19 64 8z m224 -95 c70 -29 154 -65 186 -81
187 -94 385 -246 454 -349 38 -56 42 -68 42 -122 0 -49 -6 -70 -32 -116 -41
-71 -42 -73 -110 -140 -95 -95 -121 -115 -178 -139 -85 -37 -161 -62 -186 -62
-39 0 -149 49 -176 78 -49 52 -117 162 -124 199 -4 21 -10 43 -14 48 -11 13
-28 112 -36 205 -8 86 -8 77 0 270 5 129 4 143 -9 126 -21 -27 -19 -11 6 54
19 52 36 80 46 80 2 0 61 -23 131 -51z"/>
<path d="M2330 5060 c-55 -7 -115 -40 -240 -136 -142 -108 -167 -137 -220
-249 -74 -157 -127 -335 -100 -335 9 0 10 -15 6 -52 -16 -129 -18 -181 -7
-188 6 -3 13 -42 15 -86 6 -99 12 -124 49 -199 52 -106 120 -190 173 -218 16
-8 40 -25 54 -36 37 -33 82 -59 115 -67 17 -4 43 -13 58 -21 18 -9 33 -11 40
-5 7 5 21 6 32 1 45 -18 121 -10 181 19 32 16 79 37 104 47 59 25 68 31 150
104 133 119 277 338 299 453 16 91 6 235 -24 328 -34 106 -88 220 -114 244
-11 10 -39 20 -61 21 -22 2 -58 13 -80 24 -22 11 -50 18 -64 15 -16 -3 -45 7
-79 25 -40 21 -58 26 -66 18 -13 -13 -120 -35 -143 -29 -14 3 -13 7 7 26 31
27 35 48 10 51 -43 4 -85 17 -85 26 0 5 -8 9 -17 9 -15 0 -14 2 3 19 10 10 22
17 26 14 5 -2 16 1 25 6 13 8 14 10 4 11 -11 0 -10 4 4 14 17 12 17 14 1 23
-16 9 -14 11 13 22 41 17 59 40 42 51 -9 5 5 12 38 21 46 12 50 14 29 22 -28
10 -118 14 -178 7z m112 -410 c67 -32 105 -60 179 -134 79 -79 111 -139 117
-216 3 -48 -1 -63 -33 -125 -47 -87 -69 -118 -131 -177 -127 -122 -163 -139
-246 -117 -48 13 -56 19 -86 69 -46 78 -53 113 -51 261 1 124 3 134 37 217 19
48 45 103 57 122 12 19 25 46 30 60 22 75 40 80 127 40z"/>
<path d="M3540 3634 c-26 -23 -60 -101 -74 -174 -3 -14 -7 -36 -11 -50 -3 -14
-8 -54 -11 -89 -5 -48 -4 -62 5 -57 9 6 11 -4 10 -36 -1 -23 1 -85 5 -137 4
-75 10 -98 26 -116 11 -12 20 -24 20 -28 0 -10 111 -146 119 -145 16 2 31 -3
43 -15 20 -20 118 -49 163 -50 49 0 187 69 218 110 12 16 30 34 39 41 10 7 16
17 13 22 -3 5 -1 11 4 15 6 3 13 27 16 53 3 26 10 57 16 70 6 16 3 39 -11 82
-11 33 -20 72 -20 87 0 16 -7 38 -15 49 -8 12 -11 24 -8 28 3 3 -7 6 -23 6
-16 0 -39 7 -50 15 -21 14 -32 14 -83 -1 -16 -5 -22 -4 -17 4 3 6 -3 13 -14
17 -13 4 -21 18 -25 43 -8 47 -36 111 -42 95 -3 -7 -9 -13 -14 -13 -6 0 -5 9
1 21 14 26 -13 74 -37 65 -8 -3 -31 -9 -52 -12 -41 -7 -68 13 -57 42 5 12 2
15 -9 10 -10 -4 -19 3 -27 19 -6 13 -15 22 -19 19 -5 -3 -9 1 -9 9 0 26 -39
27 -70 1z"/>
<path d="M4337 468 c-147 -21 -440 -30 -1012 -32 l-480 -2 -125 -34 c-99 -27
-120 -35 -100 -41 24 -7 24 -7 -5 -8 -16 -1 -41 -8 -55 -16 -14 -8 -35 -14
-47 -15 -35 0 -32 -22 8 -69 37 -42 45 -76 11 -49 -12 10 -14 10 -8 1 9 -16
-6 -17 -20 -3 -8 8 -15 6 -24 -5 -8 -10 -9 -15 -2 -15 22 0 0 -29 -29 -39 -32
-11 -37 -25 -13 -39 11 -6 3 -9 -27 -8 -27 1 -44 -4 -47 -13 -2 -8 0 -11 5 -8
5 3 40 -10 77 -30 l68 -35 296 -5 c265 -4 297 -3 308 12 12 16 18 16 95 -3 21
-6 43 -6 50 -1 8 5 33 6 57 3 78 -12 306 -8 310 5 2 7 32 11 81 11 43 0 80 3
84 6 3 3 30 8 61 10 31 2 68 6 83 8 16 2 48 8 73 11 25 4 52 9 61 10 9 2 40 6
70 10 30 3 65 8 79 10 41 7 154 24 280 40 25 4 63 10 85 15 87 19 225 28 303
20 38 -4 58 -2 67 7 7 7 41 29 74 48 34 20 61 42 61 50 0 11 11 15 38 15 58 0
79 9 97 44 36 67 114 99 239 100 82 1 111 16 59 32 -33 10 -1119 12 -1186 2z"/>
</g>
</svg>
